<svg width="162" height="45" viewBox="0 0 162 45" fill="none" xmlns="http://www.w3.org/2000/svg">
<g clip-path="url(#clip0_3_118)">
<path d="M100.508 32.8604C97.9231 32.8604 96.0586 35.222 96.0586 38.5521C96.0586 41.8822 97.9231 44.2427 100.508 44.2427C103.092 44.2427 104.971 41.8822 104.971 38.5521C104.971 35.222 103.106 32.8604 100.508 32.8604ZM100.508 42.5393C98.8156 42.5393 97.6834 40.8815 97.6834 38.5521C97.6834 36.2227 98.8156 34.5649 100.508 34.5649C102.2 34.5649 103.359 36.2227 103.359 38.5521C103.359 40.8815 102.213 42.5369 100.508 42.5369V42.5393Z" fill="#377BE1"/>
<path d="M107.555 32.8603C107.426 32.8537 107.298 32.8781 107.177 32.932C107.057 32.9859 106.947 33.0681 106.855 33.1736C106.762 33.2791 106.689 33.4056 106.64 33.5454C106.591 33.6853 106.567 33.8354 106.569 33.9866C106.569 34.6115 106.955 34.9442 107.328 35.034C107.195 35.8157 106.702 36.8475 106.302 37.3945H107.424C107.864 36.8942 108.571 35.5344 108.571 34.2057C108.568 33.3606 108.114 32.8603 107.555 32.8603Z" fill="#377BE1"/>
<path d="M110.113 37.6291H113.63L110.113 42.7259V44.0546H115.509V42.5069H112.005L115.509 37.4256V36.0814H110.113V37.6291Z" fill="#377BE1"/>
<path d="M117.8 32.6103C117.617 32.6148 117.44 32.6826 117.29 32.8051C117.14 32.9277 117.024 33.0995 116.957 33.299C116.89 33.4985 116.875 33.7168 116.914 33.9264C116.952 34.1359 117.043 34.3274 117.174 34.4768C117.305 34.6261 117.471 34.7266 117.65 34.7656C117.83 34.8047 118.016 34.7805 118.184 34.6962C118.351 34.6118 118.494 34.471 118.594 34.2916C118.694 34.1121 118.747 33.902 118.745 33.6876C118.745 33.5434 118.721 33.4006 118.673 33.2677C118.625 33.1349 118.555 33.0146 118.467 32.9142C118.379 32.8137 118.274 32.735 118.159 32.6828C118.045 32.6306 117.923 32.606 117.8 32.6103Z" fill="#377BE1"/>
<path d="M118.545 36.0814H117.027V44.0546H118.545V36.0814Z" fill="#377BE1"/>
<path d="M127.951 35.8935C127.529 35.8859 127.112 35.9985 126.736 36.2219C126.359 36.4452 126.035 36.7725 125.79 37.1755C125.59 36.7772 125.303 36.4485 124.959 36.2233C124.615 35.998 124.226 35.8842 123.832 35.8935C123.437 35.8963 123.049 36.0122 122.701 36.2313C122.353 36.4503 122.056 36.7658 121.836 37.1504V36.0874H120.37V44.0619H121.889V38.3797C122.037 38.1078 122.243 37.8848 122.485 37.7318C122.727 37.5787 122.999 37.5005 123.274 37.5047C124.047 37.5047 124.566 38.0828 124.566 39.1458V44.0535H126.085V38.2839C126.254 38.04 126.468 37.8433 126.71 37.7082C126.952 37.573 127.216 37.5026 127.485 37.5023C128.27 37.5023 128.764 38.0804 128.764 39.1781V44.0571H130.278V38.8022C130.278 36.8631 129.27 35.8935 127.951 35.8935Z" fill="#377BE1"/>
<path d="M131.747 37.6291H135.264L131.747 42.7259V44.0546H137.143V42.5069H133.639L137.143 37.4256V36.0814H131.747V37.6291Z" fill="#377BE1"/>
<path d="M139.434 32.6103C139.251 32.6148 139.074 32.6826 138.924 32.8051C138.774 32.9277 138.658 33.0995 138.591 33.299C138.524 33.4985 138.509 33.7168 138.548 33.9264C138.586 34.1359 138.677 34.3274 138.808 34.4768C138.939 34.6261 139.105 34.7266 139.285 34.7656C139.464 34.8047 139.65 34.7805 139.818 34.6962C139.986 34.6118 140.128 34.471 140.228 34.2916C140.328 34.1121 140.381 33.902 140.379 33.6876C140.379 33.5434 140.355 33.4006 140.307 33.2677C140.259 33.1349 140.189 33.0146 140.101 32.9142C140.013 32.8137 139.908 32.735 139.794 32.6828C139.679 32.6306 139.557 32.606 139.434 32.6103Z" fill="#377BE1"/>
<path d="M140.179 36.0814H138.661V44.0546H140.179V36.0814Z" fill="#377BE1"/>
<path d="M145.588 35.8935C145.174 35.8826 144.763 35.9926 144.393 36.2136C144.023 36.4346 143.706 36.7598 143.47 37.16V36.097L143.483 36.0815H142.008V44.0559H143.527V38.3953C143.861 37.8171 144.419 37.5047 145.057 37.5047C145.896 37.5047 146.47 38.0829 146.47 39.3337V44.0559H147.988V38.8956C147.986 36.8631 146.904 35.8935 145.588 35.8935Z" fill="#377BE1"/>
<path d="M151.264 36.0814H149.745V44.0546H151.264V36.0814Z" fill="#377BE1"/>
<path d="M150.517 32.6103C150.334 32.6148 150.157 32.6826 150.007 32.8051C149.857 32.9277 149.741 33.0995 149.675 33.299C149.608 33.4985 149.593 33.7168 149.631 33.9264C149.67 34.1359 149.76 34.3274 149.891 34.4768C150.022 34.6261 150.188 34.7266 150.368 34.7656C150.547 34.8047 150.733 34.7805 150.901 34.6962C151.069 34.6118 151.212 34.471 151.312 34.2916C151.412 34.1121 151.464 33.902 151.463 33.6876C151.463 33.5434 151.438 33.4006 151.39 33.2677C151.342 33.1349 151.272 33.0146 151.184 32.9142C151.096 32.8137 150.991 32.735 150.877 32.6828C150.762 32.6306 150.64 32.606 150.517 32.6103Z" fill="#377BE1"/>
<path d="M159.03 36.0815H157.352L155.46 39.1302H154.607V32.6892H153.088V44.0547H154.607V40.6002H155.433L157.365 44.0547H159.124L156.726 39.803L159.03 36.0815Z" fill="#377BE1"/>
<path d="M161.801 36.0814H160.282V44.0546H161.801V36.0814Z" fill="#377BE1"/>
<path d="M161.054 34.7839C161.237 34.7822 161.415 34.7172 161.566 34.5971C161.718 34.477 161.835 34.3071 161.904 34.1088C161.974 33.9105 161.991 33.6926 161.955 33.4825C161.919 33.2724 161.831 33.0795 161.702 32.9281C161.573 32.7766 161.408 32.6734 161.229 32.6313C161.05 32.5892 160.864 32.6102 160.695 32.6916C160.527 32.773 160.382 32.9112 160.28 33.0888C160.178 33.2664 160.122 33.4755 160.121 33.6898C160.119 33.8342 160.142 33.9776 160.188 34.1114C160.235 34.2453 160.303 34.3668 160.39 34.4689C160.477 34.571 160.581 34.6514 160.695 34.7055C160.809 34.7596 160.931 34.7863 161.054 34.7839Z" fill="#377BE1"/>
<path d="M47.1167 27.368H43L48.9618 9.87979H53.2948L59.2525 27.368H55.1318L54.2658 24.6149H47.9827L47.1167 27.368ZM50.7346 15.8241L49.174 20.8707H53.0744L51.5118 15.8241C51.337 15.2481 51.2066 14.6548 51.1222 14.0513C51.0389 14.6548 50.9092 15.2482 50.7346 15.8241ZM60.4245 23.6824C60.0206 22.1783 60.0206 20.5649 60.4245 19.0608C60.6228 18.3295 60.923 17.6419 61.3129 17.0259C61.7272 16.3875 62.2711 15.8809 62.8949 15.5524C63.6016 15.1755 64.3709 14.9878 65.1471 15.003C66.014 15.003 66.7471 15.1945 67.3462 15.5775C67.9452 15.9606 68.3893 16.4354 68.6783 17.002V15.3764H71.928V26.8677C71.928 28.0168 71.758 29.0203 71.418 29.8781C71.1185 30.6799 70.6341 31.3677 70.0196 31.8639C69.4229 32.3334 68.7643 32.684 68.0704 32.9017C67.3208 33.133 66.5484 33.2465 65.7733 33.2393C64.1271 33.2393 62.6311 32.8642 61.2854 32.1141V28.4932C62.4556 29.3263 63.7844 29.7425 65.2715 29.7417C67.2503 29.7417 68.2397 28.8674 68.2397 27.119V26.3936C67.4917 27.2938 66.4601 27.7435 65.145 27.7427C64.369 27.7586 63.5997 27.5718 62.8929 27.1956C62.2688 26.867 61.7249 26.3599 61.3109 25.7209C60.9212 25.1038 60.621 24.4155 60.4225 23.6836L60.4245 23.6824ZM68.2397 19.9981C68.054 19.5644 67.7721 19.1976 67.4237 18.9363C67.0445 18.644 66.5993 18.4918 66.1456 18.4994C65.4235 18.4994 64.871 18.7823 64.4881 19.3481C64.1154 19.9322 63.9139 20.6424 63.9139 21.3722C63.9139 22.102 64.1154 22.8122 64.4881 23.3963C64.871 23.9629 65.4235 24.2458 66.1456 24.245C66.5994 24.2532 67.0447 24.101 67.4237 23.8081C67.775 23.5483 68.0595 23.1813 68.2468 22.7464L68.2397 19.9981ZM77.9775 16.9996C78.8615 15.5177 80.2191 14.8932 82.0503 15.1263V19.2487C81.3443 19.0641 80.6098 19.0942 79.9165 19.3361C79.2297 19.5755 78.7279 19.9793 78.411 20.5475V27.3704H74.7319V15.3764H77.9816V16.9996H77.9775ZM85.1725 26.0812C84.0539 24.9744 83.4943 23.4047 83.4936 21.3722C83.493 19.3397 84.0539 17.7696 85.1766 16.662C86.2959 15.5536 87.6858 14.9998 89.3463 15.0006C91.0069 15.0014 92.3971 15.5552 93.5171 16.662C94.6363 17.7696 95.196 19.3393 95.196 21.371C95.196 23.4027 94.6363 24.9724 93.5171 26.08C92.3978 27.1884 91.0076 27.7423 89.3463 27.7415C87.6851 27.7407 86.2952 27.1873 85.1766 26.0812H85.1725ZM90.9069 23.2455C91.2388 22.7468 91.4047 22.1223 91.4047 21.3722C91.4047 20.6221 91.2388 19.9977 90.9069 19.4989C90.5744 18.9986 90.0546 18.7484 89.3474 18.7484C88.6402 18.7484 88.12 18.9986 87.7868 19.4989C87.4556 19.9985 87.2897 20.6229 87.289 21.3722C87.2883 22.1215 87.4543 22.746 87.7868 23.2455C88.1193 23.7459 88.6395 23.996 89.3474 23.996C90.0552 23.996 90.5751 23.7459 90.9069 23.2455ZM109.107 27.368H96.9106V24.245L103.496 14.0023H97.3002V9.87979H108.912V13.0028L102.307 23.2455H109.11L109.107 27.368ZM129.182 27.368H125.5V15.3764H128.75V16.65C129.159 16.1318 129.655 15.7179 130.206 15.4344C130.758 15.1508 131.353 15.0035 131.955 15.0018C133.341 15.0018 134.367 15.5512 135.032 16.65C136.057 15.5512 137.162 15.0018 138.347 15.0018C139.083 15.0018 139.719 15.1558 140.253 15.4638C140.744 15.726 141.158 16.1513 141.444 16.6871C141.689 17.1547 141.879 17.6593 142.007 18.187C142.122 18.6711 142.18 19.1712 142.181 19.6737V27.368H138.498V20.0483C138.498 19.5983 138.386 19.2483 138.162 18.9986C138.048 18.873 137.913 18.7753 137.766 18.711C137.619 18.6467 137.463 18.6171 137.306 18.6239C136.743 18.6239 136.238 18.882 135.791 19.3984V27.368H132.107V20.0483C132.107 19.5983 131.996 19.2483 131.772 18.9986C131.657 18.8731 131.523 18.7754 131.376 18.7112C131.229 18.6469 131.073 18.6172 130.916 18.6239C130.236 18.6239 129.658 18.9734 129.182 19.6725V27.368ZM148.518 27.368H144.835V15.3764H148.518V27.368ZM148.777 11.3282C148.777 12.1118 148.579 12.6991 148.181 13.0902C147.784 13.4812 147.282 13.6767 146.676 13.6767C146.069 13.6767 145.568 13.4812 145.17 13.0902C144.773 12.6991 144.575 12.1118 144.575 11.3282C144.575 10.5621 144.777 9.98353 145.182 9.59251C145.604 9.19195 146.134 8.98217 146.677 9.00119C147.284 9.00119 147.785 9.1971 148.182 9.58892C148.58 9.98074 148.778 10.5605 148.777 11.3282ZM154.537 16.7506C155.475 15.5847 156.58 15.0018 157.852 15.0018C159.212 15.0018 160.245 15.4638 160.95 16.3879C161.655 17.312 162.009 18.4902 162.011 19.9226V27.368H158.328V20.4924C158.328 19.8772 158.184 19.4111 157.895 19.0943C157.606 18.7775 157.223 18.6179 156.746 18.6155C156.038 18.6155 155.446 18.9654 154.97 19.6653V27.3596H151.287V15.3764H154.537V16.7506ZM119.494 25.7449C119.206 26.3114 118.762 26.7859 118.162 27.1681C117.562 27.5503 116.829 27.7419 115.963 27.7427C115.187 27.7578 114.417 27.5702 113.71 27.1932C113.086 26.8646 112.543 26.3581 112.129 25.7197C111.739 25.1039 111.438 24.4163 111.24 23.6848C110.835 22.181 110.835 20.567 111.24 19.0632C111.438 18.3317 111.738 17.644 112.129 17.0283C112.543 16.3899 113.086 15.8834 113.71 15.5548C114.417 15.1778 115.187 14.9902 115.963 15.0054C116.83 15.0054 117.563 15.1969 118.162 15.5799C118.761 15.963 119.205 16.4378 119.494 17.0043V15.3764H122.744V27.368H119.494V25.7449ZM115.302 19.3481C114.929 19.9322 114.728 20.6424 114.728 21.3722C114.728 22.102 114.929 22.8122 115.302 23.3963C115.685 23.9629 116.237 24.2458 116.96 24.245C117.413 24.2532 117.859 24.101 118.238 23.8081C118.589 23.5487 118.874 23.1816 119.061 22.7464V19.9933C118.873 19.5585 118.589 19.1916 118.238 18.9315C117.858 18.6392 117.413 18.487 116.96 18.4946C116.235 18.4978 115.683 18.7823 115.302 19.3481Z" fill="black"/>
<path d="M17.9121 10.6967H18.063C18.063 16.3776 22.093 21.0256 27.0186 21.0256V21.1992C22.093 21.1992 18.063 25.8471 18.063 31.5281H17.9121C17.9121 25.8471 13.8811 21.1992 8.95554 21.1992V21.0256C13.8811 21.0292 17.9121 16.3812 17.9121 10.6967Z" fill="#00CD69"/>
<path d="M27.0184 0.371338C31.9654 0.371338 35.975 4.99656 35.975 10.7003C35.975 16.404 31.9654 21.0292 27.0184 21.0292V10.6967H18.0629C18.0629 4.99656 22.0725 0.371338 27.0184 0.371338Z" fill="#00CD69"/>
<path d="M8.95552 0.37291C13.9025 0.37291 17.9121 4.99693 17.9121 10.7018H8.95552V21.0296C4.00958 21.0296 0 16.4056 0 10.7018C0 4.99813 4.00958 0.37291 8.95552 0.37291Z" fill="#00CD69"/>
<path d="M27.0184 21.2028C31.9654 21.2028 35.975 25.8281 35.975 31.5318C35.975 37.2355 31.9654 41.8607 27.0184 41.8607C22.0715 41.8607 18.0629 37.2355 18.0629 31.5318H27.0184V21.2028Z" fill="#00CD69"/>
<path d="M17.9121 31.5318C17.9121 37.2355 13.9025 41.8607 8.95552 41.8607C4.00856 41.8607 0 37.2355 0 31.5318C0 25.8281 4.00958 21.2028 8.95552 21.2028V31.5318H17.9121Z" fill="#00CD69"/>
</g>
<defs>
<clipPath id="clip0_3_118">
<rect width="162" height="43.8713" fill="white" transform="translate(0 0.371338)"/>
</clipPath>
</defs>
</svg>
